{
    "time_signature": "4/4",
    "blue_stroke": {
        "normalized_speed": 1,
        "notes": [
            {
                "note": 81,
                "duration": 0.125,
                "velocity": 115
            },
            {
                "note": 75,
                "duration": 0.125,
                "velocity": 105
            },
            {
                "note": 68,
                "duration": 0.25,
                "velocity": 93
            },
            {
                "note": 69,
                "duration": 0.125,
                "velocity": 94
            },
            {
                "note": 76,
                "duration": 0.125,
                "velocity": 107
            },
            {
                "note": 66,
                "duration": 0.25,
                "velocity": 90
            },
            {
                "note": 59,
                "duration": 0.125,
                "velocity": 78
            },
            {
                "note": 63,
                "duration": 0.5,
                "velocity": 86
            },
            {
                "note": 72,
                "duration": 0.125,
                "velocity": 101
            },
            {
                "note": 63,
                "duration": 0.25,
                "velocity": 84
            },
            {
                "note": 60,
                "duration": 0.125,
                "velocity": 80
            },
            {
                "note": 60,
                "duration": 0.125,
                "velocity": 80
            },
            {
                "note": 66,
                "duration": 0.25,
                "velocity": 90
            },
            {
                "note": 75,
                "duration": 0.125,
                "velocity": 105
            },
            {
                "note": 62,
                "duration": 0.125,
                "velocity": 84
            },
            {
                "note": 55,
                "duration": 0.25,
                "velocity": 72
            }
        ]
    },
    "red_stroke": {
        "normalized_speed": 0,
        "notes": [
            {
                "note": 79,
                "duration": 0.5,
                "velocity": 111
            },
            {
                "note": 61,
                "duration": 0.25,
                "velocity": 82
            },
            {
                "note": 57,
                "duration": 0.5,
                "velocity": 75
            },
            {
                "note": 73,
                "duration": 0.25,
                "velocity": 102
            },
            {
                "note": 67,
                "duration": 0.5,
                "velocity": 92
            },
            {
                "note": 57,
                "duration": 0.125,
                "velocity": 75
            },
            {
                "note": 72,
                "duration": 0.25,
                "velocity": 101
            },
            {
                "note": 79,
                "duration": 0.5,
                "velocity": 111
            },
            {
                "note": 59,
                "duration": 0.25,
                "velocity": 79
            },
            {
                "note": 56,
                "duration": 0.125,
                "velocity": 74
            },
            {
                "note": 61,
                "duration": 0.5,
                "velocity": 98
            },
            {
                "note": 69,
                "duration": 0.25,
                "velocity": 85
            },
            {
                "note": 70,
                "duration": 0.5,
                "velocity": 84
            },
            {
                "note": 70,
                "duration": 0.25,
                "velocity": 97
            },
            {
                "note": 73,
                "duration": 0.5,
                "velocity": 102
            },
            {
                "note": 78,
                "duration": 0.125,
                "velocity": 111
            }
        ]
    },
    "green_stroke": {
        "normalized_speed": 0.2395600554326428,
        "notes": [
            {
                "note": 77,
                "duration": 0.5,
                "velocity": 79
            },
            {
                "note": 70,
                "duration": 0.25,
                "velocity": 70
            },
            {
                "note": 53,
                "duration": 0.5,
                "velocity": 53
            },
            {
                "note": 62,
                "duration": 0.25,
                "velocity": 62
            },
            {
                "note": 64,
                "duration": 0.5,
                "velocity": 64
            },
            {
                "note": 54,
                "duration": 0.125,
                "velocity": 54
            },
            {
                "note": 57,
                "duration": 0.5,
                "velocity": 57
            },
            {
                "note": 69,
                "duration": 0.5,
                "velocity": 69
            },
            {
                "note": 65,
                "duration": 0.25,
                "velocity": 65
            },
            {
                "note": 66,
                "duration": 0.5,
                "velocity": 66
            },
            {
                "note": 75,
                "duration": 0.125,
                "velocity": 75
            },
            {
                "note": 67,
                "duration": 0.5,
                "velocity": 67
            },
            {
                "note": 75,
                "duration": 0.5,
                "velocity": 75
            },
            {
                "note": 76,
                "duration": 0.25,
                "velocity": 76
            },
            {
                "note": 77,
                "duration": 0.5,
                "velocity": 77
            },
            {
                "note": 77,
                "duration": 0.125,
                "velocity": 77
            },
            {
                "note": 74,
                "duration": 0.5,
                "velocity": 74
            },
            {
                "note": 65,
                "duration": 0.25,
                "velocity": 65
            }
        ]
    }
}